<svg width="94" height="94" fill="none" xmlns="http://www.w3.org/2000/svg"><path fill-rule="evenodd" clip-rule="evenodd" d="M47.023 20C31.527 20 19 32.444 19 47.84c0 12.306 8.026 22.723 19.161 26.41 1.393.277 1.903-.599 1.903-1.336 0-.645-.046-2.858-.046-5.163-7.796 1.66-9.419-3.318-9.419-3.318-1.253-3.227-3.109-4.056-3.109-4.056-2.551-1.706.186-1.706.186-1.706 2.83.185 4.315 2.858 4.315 2.858 2.505 4.24 6.542 3.042 8.166 2.305.231-1.798.974-3.042 1.763-3.734-6.218-.645-12.76-3.042-12.76-13.735 0-3.043 1.114-5.531 2.877-7.467-.278-.691-1.253-3.55.279-7.375 0 0 2.366-.738 7.701 2.858 2.284-.61 4.64-.92 7.006-.922 2.366 0 4.778.323 7.006.922 5.335-3.596 7.701-2.858 7.701-2.858 1.532 3.826.557 6.684.279 7.375 1.81 1.936 2.876 4.424 2.876 7.467 0 10.693-6.541 13.044-12.805 13.735 1.021.876 1.902 2.535 1.902 5.163 0 3.733-.046 6.73-.046 7.65 0 .738.51 1.614 1.902 1.338C66.973 70.563 75 60.146 75 47.84 75.046 32.444 62.473 20 47.023 20z" fill="#EFE5DC"/></svg>